<svg xmlns="http://www.w3.org/2000/svg" width="25.983" height="25.983" viewBox="0 0 25.983 25.983">
  <g id="facebook" transform="translate(0)">
    <path id="Caminho_10389" data-name="Caminho 10389" d="M977.822,224.949a12.991,12.991,0,1,0,12.992,12.992A13.006,13.006,0,0,0,977.822,224.949Zm0,24.749a11.757,11.757,0,1,1,11.757-11.757A11.771,11.771,0,0,1,977.822,249.7Z" transform="translate(-964.831 -224.949)" fill="#3c5a99" fill-rule="evenodd"/>
    <path id="Caminho_10390" data-name="Caminho 10390" d="M1002.176,241.652h-2.657a2.823,2.823,0,0,0-2.823,2.823v2.237h-1.407a.2.2,0,0,0-.2.2v2.321a.2.2,0,0,0,.2.2H996.7v7.7a.2.2,0,0,0,.2.2h2.814a.2.2,0,0,0,.2-.2v-7.7h2.04a.2.2,0,0,0,.2-.181l.2-2.321a.2.2,0,0,0-.2-.214H999.9v-1.647a.7.7,0,0,1,.7-.7h1.573a.2.2,0,0,0,.2-.2v-2.321A.2.2,0,0,0,1002.176,241.652Z" transform="translate(-985.755 -236.499)" fill="#3c5a99" fill-rule="evenodd"/>
  </g>
</svg>
