<svg xmlns="http://www.w3.org/2000/svg" xmlns:xlink="http://www.w3.org/1999/xlink" width="25.813" height="25.813" viewBox="0 0 25.813 25.813">
  <defs>
    <linearGradient id="linear-gradient" x1="0.096" y1="0.844" x2="1.336" y2="-0.212" gradientUnits="objectBoundingBox">
      <stop offset="0.001" stop-color="#fbe18a"/>
      <stop offset="0.209" stop-color="#fcbb45"/>
      <stop offset="0.376" stop-color="#f75274"/>
      <stop offset="0.524" stop-color="#d53692"/>
      <stop offset="0.739" stop-color="#8f39ce"/>
      <stop offset="1" stop-color="#5b4fe9"/>
    </linearGradient>
  </defs>
  <path id="instagram" d="M685.043,284.547A12.906,12.906,0,1,1,697.95,271.64,12.921,12.921,0,0,1,685.043,284.547Zm0-24.587a11.68,11.68,0,1,0,11.68,11.68A11.693,11.693,0,0,0,685.043,259.96ZM689.4,266.4a.955.955,0,1,0,.955.955A.955.955,0,0,0,689.4,266.4Zm-4.246,1.225a4.012,4.012,0,1,0,4.012,4.012A4.017,4.017,0,0,0,685.149,267.629Zm0,6.582a2.57,2.57,0,1,1,2.57-2.57A2.573,2.573,0,0,1,685.149,274.21Zm8.095-5.9a4.893,4.893,0,0,0-4.893-4.893h-6.458A4.893,4.893,0,0,0,677,268.306v6.459a4.893,4.893,0,0,0,4.893,4.893h6.458a4.893,4.893,0,0,0,4.893-4.893Zm-1.533,6.459a3.361,3.361,0,0,1-3.361,3.361h-6.458a3.361,3.361,0,0,1-3.361-3.361v-6.459a3.361,3.361,0,0,1,3.361-3.361h6.458a3.361,3.361,0,0,1,3.361,3.361Z" transform="translate(-672.137 -258.734)" fill="url(#linear-gradient)"/>
</svg>
