<svg xmlns="http://www.w3.org/2000/svg" width="26.5" height="26.5" viewBox="0 0 26.5 26.5">
  <g id="linkedin" transform="translate(74.935 -170.818)">
    <g id="Grupo_15911" data-name="Grupo 15911" transform="translate(-74.435 171.318)">
      <path id="Caminho_10398" data-name="Caminho 10398" d="M-61.685,196.818a12.764,12.764,0,0,1-12.75-12.75,12.764,12.764,0,0,1,12.75-12.75,12.764,12.764,0,0,1,12.75,12.75A12.765,12.765,0,0,1-61.685,196.818Z" transform="translate(74.435 -171.318)" fill="none" stroke="#4091d3" stroke-miterlimit="10" stroke-width="1"/>
    </g>
    <path id="Caminho_10399" data-name="Caminho 10399" d="M-55.039,191.734h2.506v8.05h-2.506Zm1.253-4a1.451,1.451,0,0,1,1.45,1.45,1.452,1.452,0,0,1-1.45,1.452,1.452,1.452,0,0,1-1.453-1.452,1.451,1.451,0,0,1,1.453-1.45m2.822,12.049h2.5V195.8c0-1.049.2-2.066,1.5-2.066,1.282,0,1.3,1.2,1.3,2.135v3.913h2.5v-4.415c0-2.168-.467-3.834-3-3.834a2.631,2.631,0,0,0-2.369,1.3h-.033v-1.1h-2.4Z" transform="translate(-12.486 -10.677)" fill="#4091d3"/>
  </g>
</svg>
