<svg id="whatsapp" xmlns="http://www.w3.org/2000/svg" width="25.813" height="25.813" viewBox="0 0 25.813 25.813">
  <path id="Caminho_10391" data-name="Caminho 10391" d="M854.737,224.949a12.906,12.906,0,1,0,12.906,12.906A12.921,12.921,0,0,0,854.737,224.949Zm0,24.587a11.68,11.68,0,1,1,11.68-11.68A11.693,11.693,0,0,1,854.737,249.536Z" transform="translate(-841.831 -224.949)" fill="#3aad4a" fill-rule="evenodd"/>
  <path id="Caminho_10392" data-name="Caminho 10392" d="M868.193,239.467a7.842,7.842,0,0,0-6.591,12.094l-1.192,2.625a.685.685,0,0,0,.8.943l3.283-.9a7.843,7.843,0,1,0,3.694-14.762Zm0,14.317a6.468,6.468,0,0,1-3.26-.882.684.684,0,0,0-.527-.069l-2.145.588.747-1.645a.685.685,0,0,0-.068-.684,6.473,6.473,0,1,1,5.252,2.691Z" transform="translate(-854.673 -235.017)" fill="#3aad4a" fill-rule="evenodd"/>
  <path id="Caminho_10393" data-name="Caminho 10393" d="M880.33,258.127a1.342,1.342,0,0,0-1.143-.258c-.3.122-.486.586-.679.824a.285.285,0,0,1-.368.08,5.176,5.176,0,0,1-2.583-2.213.317.317,0,0,1,.04-.433,1.746,1.746,0,0,0,.469-.762,1.666,1.666,0,0,0-.21-.9,2.138,2.138,0,0,0-.666-1,.912.912,0,0,0-.991.147,2.012,2.012,0,0,0-.7,1.594,2.256,2.256,0,0,0,.063.505,4.189,4.189,0,0,0,.485,1.118,8.854,8.854,0,0,0,.506.77,7.821,7.821,0,0,0,2.2,2.039,6.647,6.647,0,0,0,1.37.651,3.046,3.046,0,0,0,1.594.252,1.93,1.93,0,0,0,1.445-1.075.935.935,0,0,0,.067-.549C881.147,258.535,880.636,258.31,880.33,258.127Z" transform="translate(-863.795 -244.66)" fill="#3aad4a" fill-rule="evenodd"/>
</svg>
